<mxfile host="app.diagrams.net" modified="2023-11-07T04:10:38.030Z" agent="Mozilla/5.0 (Windows NT 10.0; Win64; x64; rv:109.0) Gecko/20100101 Firefox/115.0" version="21.8.2" etag="ACiFepPDRkKiesK7mk5X" type="github">
  <diagram name="Page-1" id="mPbRefDE3ZStuMUJCPK0">
    <mxGraphModel>
      <root>
        <mxCell id="0" />
        <mxCell id="1" parent="0" />
      </root>
    </mxGraphModel>
  </diagram>
</mxfile>
